<?xml version="1.0" encoding="UTF-8" standalone="no"?>
<!DOCTYPE svg PUBLIC "-//W3C//DTD SVG 1.1//EN" "http://www.w3.org/Graphics/SVG/1.1/DTD/svg11.dtd">
<svg width="100%" height="100%" viewBox="0 0 600 324" version="1.1" xmlns="http://www.w3.org/2000/svg" xmlns:xlink="http://www.w3.org/1999/xlink" xml:space="preserve" xmlns:serif="http://www.serif.com/" style="fill-rule:evenodd;clip-rule:evenodd;stroke-linejoin:round;stroke-miterlimit:2;">
    <g transform="matrix(1,0,0,1,-1294,-1061)">
        <g id="White" transform="matrix(1,0,0,0.539503,1294,1061.3)">
            <rect x="0" y="0" width="600" height="600" style="fill:none;"/>
            <g transform="matrix(0.664139,-2.13219,1.23545,1.32212,-113.179,380.45)">
                <path d="M300.561,380.5C300.561,363.115 285.402,349 266.73,349L189.831,349C171.159,349 156,363.115 156,380.5C156,397.885 171.159,412 189.831,412L266.73,412C285.402,412 300.561,397.885 300.561,380.5Z" style="fill:white;"/>
            </g>
            <g transform="matrix(1.05539,-3.38828,1.23545,1.32212,-317.083,576.399)">
                <path d="M300.561,380.5C300.561,363.115 291.022,349 279.272,349L177.289,349C165.539,349 156,363.115 156,380.5C156,397.885 165.539,412 177.289,412L279.272,412C291.022,412 300.561,397.885 300.561,380.5Z" style="fill:white;"/>
            </g>
            <g transform="matrix(0.819562,-2.63117,1.23545,1.32212,-418.271,458.291)">
                <path d="M300.561,380.5C300.561,363.115 288.277,349 273.146,349L183.415,349C168.284,349 156,363.115 156,380.5C156,397.885 168.284,412 183.415,412L273.146,412C288.277,412 300.561,397.885 300.561,380.5Z" style="fill:white;"/>
            </g>
            <g transform="matrix(0.640092,-2.05499,1.23545,1.32212,-527.745,368.407)">
                <path d="M300.561,380.5C300.561,363.115 284.832,349 265.459,349L191.102,349C171.728,349 156,363.115 156,380.5C156,397.885 171.728,412 191.102,412L265.459,412C284.832,412 300.561,397.885 300.561,380.5Z" style="fill:white;"/>
            </g>
        </g>
    </g>
</svg>
